<svg xmlns="http://www.w3.org/2000/svg" width="1200" height="25" viewBox="0 0 1200 25">
<rect width="100%" height="100%" fill="#0e1013"/>
<polygon points="923.16,28.45 973.08,-7.72 1091.78,20.34" fill="#70e8ff" fill-opacity="0.5882"></polygon>
<polygon points="218.43,49.66 312.46,-2.39 124.12,2.19" fill="#ffe332" fill-opacity="0.5882"></polygon>
<polygon points="444.67,44.9 395.07,-51.34 276.97,14.54" fill="#ffb255" fill-opacity="0.5882"></polygon>
<polygon points="803.94,-15.42 965.45,12.53 839.21,28.25" fill="#afc1ff" fill-opacity="0.5882"></polygon>
<polygon points="680.45,2.27 787.78,74.7 851.7,2.86" fill="#f18fe8" fill-opacity="0.5882"></polygon>
<polygon points="1067.83,47.14 1016.01,-3 1183.9,-1.98" fill="#52e5ff" fill-opacity="0.5882"></polygon>
<polygon points="-23.56,25.65 133.27,25.65 8.23,-33.45" fill="#ffff09" fill-opacity="0.5882"></polygon>
<polygon points="658.13,27.97 505.77,24.4 631.73,-53.25" fill="#ff7c85" fill-opacity="0.5882"></polygon>
<polygon points="434.9,-7.1 574.89,28.59 429.17,27.98" fill="#ff9067" fill-opacity="0.5882"></polygon>
<polygon points="24.46,21.37 199.98,28.74 134.02,-26.93" fill="#ffc617" fill-opacity="0.5882"></polygon>
<polygon points="600.6,-0.74 426.54,0.32 488.21,28.05" fill="#ff6b57" fill-opacity="0.5882"></polygon>
<polygon points="663.13,-14.4 564.42,22.06 751.93,26.53" fill="#fa5779" fill-opacity="0.5882"></polygon>
<polygon points="1117.12,117.28 1211.8,5.96 1153.37,-27.92" fill="#40ece9" fill-opacity="0.5882"></polygon>
<polygon points="888.8,27.59 1013.58,-26.51 1047,28.21" fill="#5299ff" fill-opacity="0.5882"></polygon>
<polygon points="336.74,53.81 373.19,-2.89 212.44,4.94" fill="#ff8433" fill-opacity="0.5882"></polygon>
<polygon points="173.65,27.56 361.57,20.86 269.12,-17.02" fill="#ff822d" fill-opacity="0.5882"></polygon>
<polygon points="788.16,26.67 865.69,-31.3 968.05,26.3" fill="#6d7eea" fill-opacity="0.5882"></polygon>
<polygon points="272.32,26.05 86.22,26.05 179.09,-44.1" fill="#ff961f" fill-opacity="0.5882"></polygon>
<polygon points="304,26.99 475.05,26.88 414.11,-35.27" fill="#ff6b41" fill-opacity="0.5882"></polygon>
<polygon points="964.1,28.53 1079.35,-1.9 908.22,-1.87" fill="#4c92ff" fill-opacity="0.5882"></polygon>
<polygon points="33.2,57.37 139.35,-3.75 -17.47,-3.75" fill="#ffb20b" fill-opacity="0.5882"></polygon>
<polygon points="835.48,-3.66 649.88,-3.21 734.95,28.62" fill="#b05f92" fill-opacity="0.5882"></polygon>
<polygon points="671.7,39.84 512.29,26.03 554.37,-26.1" fill="#d44d4f" fill-opacity="0.5882"></polygon>
<polygon points="1106.75,51.07 1011.99,8.27 1198.91,-3.75" fill="#3897c3" fill-opacity="0.5882"></polygon>
<polygon points="607.09,-3.75 453.79,-3.75 504.65,90.18" fill="#d85a4f" fill-opacity="0.5882"></polygon>
<polygon points="855.86,-0.49 694.38,-0.49 819.35,29.39" fill="#9066a1" fill-opacity="0.5882"></polygon>
<polygon points="718.52,-46.79 587.4,22.07 737.35,28.12" fill="#bf4a68" fill-opacity="0.5882"></polygon>
<polygon points="-16.91,29.17 144.17,26.86 34.06,-72.42" fill="#f9ac0e" fill-opacity="0.5882"></polygon>
<polygon points="1224.27,28.75 1179.5,-20.54 1081.41,28.75" fill="#309f9f" fill-opacity="0.5882"></polygon>
<polygon points="1016.55,28.75 936.46,-3.75 851.6,26.21" fill="#5989f0" fill-opacity="0.5882"></polygon>
<polygon points="1006.74,85.99 991,-3.75 1121.45,-3.75" fill="#4091d5" fill-opacity="0.5882"></polygon>
<polygon points="298.36,23.88 425.89,28.75 442.22,-48.78" fill="#e26f3b" fill-opacity="0.5882"></polygon>
<polygon points="957.95,28.75 889.12,-3.75 966.31,-3.75" fill="#558bf3" fill-opacity="0.5882"></polygon>
<polygon points="260.43,-55.1 358.47,28.46 178.43,46.43" fill="#e3802e" fill-opacity="0.5882"></polygon>
<polygon points="149.03,-50.1 38.82,50.56 174.99,115.37" fill="#ee9f18" fill-opacity="0.5882"></polygon>
<polygon points="605.44,-46.53 519.46,22.39 701.51,25.33" fill="#c74c59" fill-opacity="0.5882"></polygon>
<polygon points="774.59,28.75 673.88,89.18 714.61,-77.17" fill="#a45583" fill-opacity="0.5882"></polygon>
<polygon points="758.85,37.85 849.38,21.6 732.76,-95.35" fill="#8b67a6" fill-opacity="0.5882"></polygon>
<polygon points="112.15,37.29 301.14,24.96 203,-9.52" fill="#eb8d24" fill-opacity="0.5882"></polygon>
<polygon points="425.16,28.34 534.92,-3.54 358.46,-3.54" fill="#db6544" fill-opacity="0.5882"></polygon>
</svg>